<?xml version="1.0" standalone="no"?>
<!DOCTYPE svg PUBLIC "-//W3C//DTD SVG 20010904//EN"
 "http://www.w3.org/TR/2001/REC-SVG-20010904/DTD/svg10.dtd">
<svg version="1.0" xmlns="http://www.w3.org/2000/svg"
 width="300.000000pt" height="300.000000pt" viewBox="0 0 300.000000 300.000000"
 preserveAspectRatio="xMidYMid meet">
<metadata>
Created by potrace 1.11, written by Peter Selinger 2001-2013
</metadata>
<g transform="translate(0.000000,300.000000) scale(0.100000,-0.100000)"
fill="#000000" stroke="none">
<path d="M1464 2697 c-13 -14 -186 -176 -593 -553 -41 -38 -90 -84 -110 -103
-20 -18 -80 -74 -135 -125 -54 -50 -113 -104 -130 -121 -96 -91 -266 -248
-289 -268 -15 -12 -27 -25 -27 -29 0 -3 24 -6 53 -6 28 0 70 -1 92 -1 l40 -1
-1 -547 c-1 -302 0 -550 2 -554 1 -3 61 10 132 27 71 18 147 35 168 38 22 3
59 8 84 13 25 4 115 7 200 7 171 -1 241 -14 339 -64 53 -27 131 -91 131 -107
0 -5 37 -7 83 -6 l82 1 47 45 c64 60 154 101 273 125 55 11 410 4 410 -8 0 -1
16 -3 35 -6 20 -2 95 -19 168 -37 115 -29 132 -32 136 -18 3 9 5 252 5 541 0
289 0 532 0 540 1 12 14 14 73 12 l73 -4 -40 37 c-84 78 -301 283 -359 340
-34 33 -106 101 -161 150 -54 50 -116 106 -136 125 -20 19 -73 69 -119 110
-45 41 -94 86 -109 100 -15 14 -78 72 -140 130 -63 58 -124 114 -135 125 -69
64 -117 105 -123 105 -5 -1 -13 -6 -19 -13z m206 -2291 c0 -3 -4 -8 -10 -11
-5 -3 -10 -1 -10 4 0 6 5 11 10 11 6 0 10 -2 10 -4z m-280 -28 c0 -6 -6 -5
-15 2 -8 7 -15 14 -15 16 0 2 7 1 15 -2 8 -4 15 -11 15 -16z m240 -12 c0 -2
-7 -9 -15 -16 -13 -11 -14 -10 -9 4 5 14 24 23 24 12z"/>
</g>
</svg>
