<?xml version="1.0" standalone="no"?>
<!DOCTYPE svg PUBLIC "-//W3C//DTD SVG 20010904//EN"
 "http://www.w3.org/TR/2001/REC-SVG-20010904/DTD/svg10.dtd">
<svg version="1.0" xmlns="http://www.w3.org/2000/svg"
 width="300.000000pt" height="300.000000pt" viewBox="0 0 300.000000 300.000000"
 preserveAspectRatio="xMidYMid meet">
<metadata>
Created by potrace 1.11, written by Peter Selinger 2001-2013
</metadata>
<g transform="translate(0.000000,300.000000) scale(0.100000,-0.100000)"
fill="#000000" stroke="none">
<path d="M699 2933 c-19 -5 -39 -44 -39 -77 l0 -23 888 0 c962 0 917 3 967
-53 20 -22 20 -38 22 -1264 2 -682 3 -1258 3 -1279 l0 -37 45 4 c25 2 52 10
60 16 13 11 15 186 15 1350 0 1232 -1 1339 -17 1351 -13 12 -178 14 -972 15
-526 1 -963 -1 -972 -3z"/>
<path d="M744 2772 c-273 -3 -263 2 -267 -110 -4 -80 -5 -78 71 -81 57 -2 90
-16 118 -48 32 -37 38 -79 17 -122 -25 -50 -71 -73 -145 -75 -56 -1 -61 -3
-63 -24 -2 -29 0 -30 60 -33 68 -4 106 -17 132 -48 33 -38 38 -75 15 -119 -24
-48 -68 -73 -134 -77 -29 -2 -58 -4 -64 -4 -13 -1 -13 -43 0 -52 4 -4 23 -5
41 -2 44 6 115 -14 137 -39 49 -57 44 -125 -14 -173 -25 -22 -39 -25 -102 -25
l-72 0 1 -32 c1 -32 1 -32 55 -33 80 -3 112 -13 137 -45 45 -56 32 -138 -26
-173 -16 -9 -58 -18 -97 -21 -38 -2 -69 -5 -70 -5 0 -1 0 -13 1 -28 1 -27 3
-28 66 -31 99 -3 141 -32 153 -105 14 -83 -58 -138 -171 -133 -24 1 -44 -1
-44 -6 -2 -10 -2 -35 0 -47 0 -5 34 -11 75 -13 62 -3 79 -7 101 -28 40 -37 51
-89 30 -134 -25 -52 -54 -68 -132 -72 -36 -2 -68 -6 -71 -9 -11 -11 -9 -55 2
-56 6 0 41 -2 78 -3 50 -2 73 -8 89 -22 47 -43 58 -108 26 -158 -24 -36 -63
-53 -132 -55 -69 -3 -74 -5 -70 -29 2 -9 4 -19 4 -23 1 -3 20 -6 44 -7 93 -5
116 -12 144 -49 34 -44 37 -100 7 -140 -29 -39 -58 -51 -134 -55 l-65 -4 2
-72 c3 -126 -123 -112 997 -112 942 0 973 1 990 19 16 18 17 107 17 1347 0
1265 -1 1328 -18 1345 -17 17 -61 19 -753 21 -404 2 -839 2 -966 0z"/>
<path d="M350 2503 c-23 -17 -26 -51 -6 -79 13 -17 27 -19 140 -19 70 0 129 4
135 10 17 17 20 62 6 82 -12 16 -29 18 -135 19 -87 0 -126 -3 -140 -13z"/>
<path d="M402 2212 c-44 -3 -55 -7 -64 -27 -13 -29 -4 -71 18 -79 9 -3 68 -6
132 -7 129 0 145 7 145 61 0 37 -15 49 -63 51 -19 1 -53 2 -75 3 -22 0 -64 0
-93 -2z"/>
<path d="M363 1910 c-25 -10 -38 -48 -28 -79 9 -29 51 -37 169 -34 89 2 103 5
118 24 19 22 19 42 1 73 -9 16 -25 19 -124 22 -63 1 -124 -2 -136 -6z"/>
<path d="M367 1608 c-49 -18 -48 -89 2 -106 41 -14 231 -6 248 11 21 21 23 55
4 78 -15 19 -29 22 -122 24 -57 2 -116 -1 -132 -7z"/>
<path d="M368 1306 c-30 -16 -42 -39 -34 -70 9 -37 39 -45 160 -44 93 0 107 3
125 22 11 12 18 30 16 41 -2 11 -4 23 -4 27 -3 29 -215 48 -263 24z"/>
<path d="M413 1011 c-34 -3 -64 -9 -67 -12 -3 -3 -9 -19 -12 -36 -5 -24 -1
-36 15 -52 19 -19 33 -21 130 -21 123 0 154 13 154 65 0 38 -26 55 -84 55 -26
0 -53 2 -61 3 -7 2 -41 1 -75 -2z"/>
<path d="M347 692 c-23 -25 -21 -58 3 -82 17 -17 33 -20 123 -20 56 0 112 3
125 7 34 8 46 47 27 84 l-16 29 -123 0 c-106 0 -125 -2 -139 -18z"/>
<path d="M348 388 c-15 -15 -19 -28 -14 -51 4 -17 11 -34 17 -38 6 -3 65 -7
130 -7 105 -1 122 1 139 18 19 19 19 65 -1 85 -5 5 -64 10 -130 11 -109 2
-123 0 -141 -18z"/>
</g>
</svg>
